<?xml version="1.0" standalone="no"?>
<!DOCTYPE svg PUBLIC "-//W3C//DTD SVG 20010904//EN"
 "http://www.w3.org/TR/2001/REC-SVG-20010904/DTD/svg10.dtd">
<svg version="1.0" xmlns="http://www.w3.org/2000/svg"
 width="500.000000pt" height="500.000000pt" viewBox="0 0 500.000000 500.000000"
 preserveAspectRatio="xMidYMid meet">
<metadata>
Created by potrace 1.11, written by Peter Selinger 2001-2013
</metadata>
<g transform="translate(0.000000,500.000000) scale(0.100000,-0.100000)"
fill="#000000" stroke="none">
<path d="M2377 4734 c-1 -1 -36 -4 -77 -7 -41 -3 -86 -8 -100 -11 -14 -2 -54
-10 -90 -16 -242 -42 -525 -138 -715 -243 -110 -60 -283 -176 -362 -242 -154
-129 -313 -293 -373 -384 -8 -13 -20 -29 -26 -35 -35 -37 -147 -219 -204 -331
-91 -179 -125 -272 -179 -490 -60 -241 -75 -362 -74 -575 0 -189 19 -321 79
-572 2 -10 6 -27 9 -38 12 -56 65 -210 103 -300 42 -98 116 -244 132 -260 3
-3 11 -16 18 -30 16 -31 173 -251 199 -278 22 -23 47 -53 57 -70 4 -6 2 -30
-4 -52 -16 -60 -14 -145 6 -225 17 -70 60 -165 75 -165 4 0 10 -8 13 -17 3
-10 34 -37 68 -60 120 -80 30 -76 1553 -78 1063 -1 1360 1 1395 11 25 7 58 15
73 18 31 5 107 51 148 89 38 37 87 118 94 157 3 19 10 51 15 70 12 44 13 165
1 206 -8 27 -5 35 28 71 111 120 264 349 346 519 46 94 119 283 130 334 2 8
10 42 19 75 29 112 66 293 73 361 10 87 10 421 1 494 -9 67 -29 177 -44 240
-3 14 -7 33 -9 42 -36 181 -141 453 -240 623 -28 48 -120 189 -137 210 -5 6
-17 21 -28 34 -11 13 -20 27 -20 30 0 3 -13 20 -28 37 -15 17 -45 53 -67 79
-233 277 -614 531 -977 649 -123 41 -315 89 -405 101 -21 3 -49 8 -63 11 -68
13 -403 28 -413 18z"/>
</g>
</svg>
